# xmcd
#
# Track frame offsets: 
#        150
#        11317
#        20978
#        32878
#        45552
#        56039
#        67653
#        91652
#        103272
#        113906
#        128102
#        141985
#        156002
#        169038
#        181841
#        194612
#        213492
#        223573
#        230700
#        242828
#        251078
#        262260
#        283207
#        298188
#        311151
#        324389
#        332784
#
# Disc length: 4574 seconds
#
# Revision: 0
# Processed by: cddbd v1.5.2PL0 Copyright (c) Steve Scherf et al.
# Submitted via: ExactAudioCopy v1.1
#
DISCID=a311dc1b
DTITLE=Various Artist - Louisiana Hayride_CD13
DYEAR=2017
DGENRE=Country
TTITLE0=Merle Kilgore, Margie Singleton and Jimmy Jay - Love Has Made Yo
TTITLE0=u Beautiful
TTITLE1=Doug Bragg - Almost Lonely
TTITLE2=Johnny Mathis - Country Girl
TTITLE3=Frankie Miller - Family Man (& Talk and station ID Harlingen T
TTITLE3=exas)
TTITLE4=James O'Gwynn - Tears Of Tomorrow
TTITLE5=The Gays - Just Keep It Up
TTITLE6=Johnny Horton - Johnny Reb
TTITLE7=Frankie Miller - Under Your Spell Again
TTITLE8=Carl Belew - Am I That Easy To Forget
TTITLE9=Johnny Horton - Sal's Got A Sugar Lip
TTITLE10=Johnny Horton - Springtime In Alaska
TTITLE11=Johnny Horton - Battle Of New Orleans (& Talk about top disc 
TTITLE11=of the year)
TTITLE12=Frankie Miller - I'm Ragged But I'm Right (& Intro)
TTITLE13=Dean Evans - The Kind Of Love I Can't Forget
TTITLE14=David Houston - My Baby Walks All Over Me
TTITLE15=Bob Luman - Red Cadillac And A Black Moustache (& Intro)
TTITLE16=Rusty and Doug Kershaw - Dancing Shoes
TTITLE17=Rusty and Doug Kershaw - Love Me To Pieces
TTITLE18=Tony Douglas - Long Gone Lonesome Blues (& Intro)
TTITLE19=Frankie Miller - Big Harlan Taylor
TTITLE20=Dee Mullin - Running Gun
TTITLE21=Buddy and Bob - Woman's Intuition
TTITLE22=The Gays - Mansion Over The Hilltop
TTITLE23=Jerry Jericho - Who's Gonna Chop My Baby's Kindling When I'm 
TTITLE23=Gone
TTITLE24=Jerry Jericho - Faded Love
TTITLE25=Frankie Miller - The Honeymoon Is Over
TTITLE26=Frankie Miller - Blackland Farmer
EXTD=
EXTT0=
EXTT1=
EXTT2=
EXTT3=
EXTT4=
EXTT5=
EXTT6=
EXTT7=
EXTT8=
EXTT9=
EXTT10=
EXTT11=
EXTT12=
EXTT13=
EXTT14=
EXTT15=
EXTT16=
EXTT17=
EXTT18=
EXTT19=
EXTT20=
EXTT21=
EXTT22=
EXTT23=
EXTT24=
EXTT25=
EXTT26=
PLAYORDER=
